<svg xmlns="http://www.w3.org/2000/svg" viewBox="0 0 4135.74 1776"><defs><style>.cls-1{fill:#6a7738;}.cls-2{fill:#fff;}</style></defs><title>uni-logo</title><g id="Layer_2" data-name="Layer 2"><g id="Layer_1-2" data-name="Layer 1"><circle class="cls-1" cx="888" cy="888" r="888"/><path class="cls-2" d="M872.53,644.43H859.18V659h9.3v61.46h-4v56c-.14,0-.27,0,0,0v35.13c-.27,0-.14,0,0,0v273.25H907.3V811.21c.14,0,.27,0,0,0v-35.1c.27,0,.14,0,0,0V720.45h-4.85V659h10.11V644.43H898.41V529.81c44.66-.51,92.16-22.92,142.74-84.73-4.85-47.32-20.63-77.64-47.31-60.66s-90.18,88.56-204.61,34C740.3,394.12,718.06,386.85,714,399s-8.08,37.6-8.08,37.6c50.51,34.62,105.83,80.85,166.6,91.15Z"/><path class="cls-2" d="M1174,965.11A310.22,310.22,0,0,0,924.69,777.67V813c134.58,18,238.71,133.55,238.71,273,0,151.86-123.54,275.4-275.4,275.4s-275.4-123.54-275.4-275.4c0-138.37,102.57-253.23,235.66-272.54V778A310.25,310.25,0,1,0,1174,965.11Z"/><path class="cls-1" d="M2867.53,342.5v707.39q0,188.44-109.18,294.62T2454,1450.7q-189.95,0-296.49-106.56T2051,1046.9V342.5h77v707.39q0,157.78,87.48,245.64T2463,1383.4q156.27,0,242.27-86.37t86-239.66V342.5Z"/><path class="cls-1" d="M3713.25,1435.74V908.56q0-122.62-51.59-178.34t-160-55.71q-145.82,0-213.49,73.66t-67.68,238.91v448.66h-74V622.92h62.81l14.21,111.41H3228q79.26-127.11,281.91-127.12,276.66,0,276.68,296.87v531.66Z"/><path class="cls-1" d="M4039.28,397.09q0-71.79,47.11-71.79,23.18,0,36.27,18.7t13.08,53.09q0,33.65-13.08,53.09t-36.27,19.44Q4039.28,469.62,4039.28,397.09Zm84.5,1038.65h-74V622.92h74Z"/></g></g></svg>