<svg xmlns="http://www.w3.org/2000/svg" viewBox="0 0 8162 2752"><defs><style>.cls-1{fill:#6a7738;}.cls-2{fill:#fff;}</style></defs><title>uni-logo_1</title><g id="Layer_2" data-name="Layer 2"><g id="Layer_1-2" data-name="Layer 1"><rect class="cls-1" width="8162" height="2752"/><circle class="cls-2" cx="2901.13" cy="1376" r="888"/><path class="cls-1" d="M2885.65,1132.43h-13.34V1147h9.3v61.46h-4v56c-.14,0-.27,0,0,0v35.13c-.27,0-.14,0,0,0v273.25h42.86V1299.21c.13,0,.27,0,0,0v-35.1c.27,0,.13,0,0,0v-55.67h-4.85V1147h10.11v-14.56h-14.16V1017.81c44.67-.51,92.17-22.92,142.75-84.73-4.86-47.32-20.63-77.64-47.31-60.66s-90.18,88.56-204.62,34c-48.92-24.27-71.17-31.54-75.21-19.41s-8.09,37.6-8.09,37.6c50.52,34.62,105.84,80.85,166.6,91.15Z"/><path class="cls-1" d="M3187.14,1453.11a310.22,310.22,0,0,0-249.32-187.44V1301c134.57,18,238.71,133.55,238.71,273,0,151.86-123.54,275.4-275.4,275.4s-275.41-123.54-275.41-275.4c0-138.37,102.57-253.23,235.67-272.54V1266a310.25,310.25,0,1,0,325.75,187.07Z"/><path class="cls-2" d="M4880.66,830.5v707.39q0,188.44-109.18,294.62T4467.14,1938.7q-189.95,0-296.49-106.56T4064.09,1534.9V830.5h77v707.39q0,157.78,87.49,245.64t247.51,87.87q156.29,0,242.28-86.37t86-239.66V830.5Z"/><path class="cls-2" d="M5726.38,1923.74V1396.56q0-122.62-51.59-178.34t-160-55.71q-145.82,0-213.48,73.66t-67.68,238.91v448.66h-74V1110.92h62.82l14.2,111.41h4.49q79.26-127.11,281.91-127.12,276.66,0,276.67,296.87v531.66Z"/><path class="cls-2" d="M6052.41,885.09q0-71.79,47.11-71.79,23.17,0,36.27,18.7t13.08,53.09q0,33.64-13.08,53.09t-36.27,19.44Q6052.4,957.62,6052.41,885.09Zm84.5,1038.65h-74V1110.92h74Z"/></g></g></svg>